<?xml version="1.0" encoding="UTF-8" standalone="no"?>
<svg width="40px" height="46px" viewBox="0 0 40 46" version="1.1" xmlns="http://www.w3.org/2000/svg" xmlns:xlink="http://www.w3.org/1999/xlink">
    <!-- Generator: Sketch 40 (33762) - http://www.bohemiancoding.com/sketch -->
    <title>Group 31</title>
    <desc>Created with Sketch.</desc>
    <defs></defs>
    <g id="Page-1" stroke="none" stroke-width="1" fill="none" fill-rule="evenodd">
        <g id="Group-31">
            <path d="M38.0567244,35.2411339 L21.8724724,44.5853858 C20.7030236,45.2606614 19.2623937,45.2606614 18.0929449,44.5853858 L1.90869291,35.2411339 C0.739559055,34.5661732 0.0189291339,33.3186142 0.0189291339,31.968378 L0.0189291339,13.279874 C0.0189291339,11.9296378 0.739559055,10.6820787 1.90869291,10.0074331 L18.0929449,0.663181102 C19.2623937,-0.0124094488 20.7030236,-0.0124094488 21.8724724,0.663181102 L38.0567244,10.0074331 C39.2261732,10.6820787 39.9464882,11.9296378 39.9464882,13.279874 L39.9464882,31.968378 C39.9464882,33.3186142 39.2261732,34.5661732 38.0567244,35.2411339 L38.0567244,35.2411339 Z" id="Stroke-255" fill="#FAD801"></path>
            <path d="M19.9821732,11.3548661 C13.6262677,11.3548661 8.47382677,16.5277795 8.47382677,22.9101417 C8.47382677,28.0143937 11.7711496,32.3454173 16.3446929,33.8732913 C16.9204409,33.979748 17.1302047,33.6228976 17.1302047,33.3167559 C17.1302047,33.0421102 17.1204409,32.3154961 17.1147717,31.3514016 C13.9128819,32.0502992 13.2369764,29.8024252 13.2369764,29.8024252 C12.7147717,28.467937 11.959811,28.1126614 11.959811,28.1126614 C10.9147717,27.395811 12.0385512,27.4102992 12.0385512,27.4102992 C13.1931969,27.4915591 13.8017008,28.6011654 13.8017008,28.6011654 C14.8284724,30.3665197 16.4949291,29.8565984 17.1513071,29.5605354 C17.255874,28.8137638 17.5528819,28.3044724 17.8820157,28.0153386 C15.3261102,27.724315 12.639811,26.7334488 12.639811,22.3057323 C12.639811,21.044315 13.088,20.0128189 13.824378,19.2046299 C13.7056378,18.9120315 13.3106772,17.7381732 13.9371339,16.1469921 C13.9371339,16.1469921 14.9034331,15.8364409 17.1018583,17.3315591 C18.0199685,17.0751811 19.0042205,16.9473071 19.9834331,16.9422677 C20.960126,16.9473071 21.9450079,17.0751811 22.8646929,17.3315591 C25.0615433,15.8364409 26.0259528,16.1469921 26.0259528,16.1469921 C26.6542992,17.7381732 26.2593386,18.9120315 26.1405984,19.2046299 C26.8785512,20.0128189 27.3242205,21.044315 27.3242205,22.3057323 C27.3242205,26.7441575 24.6328819,27.7211654 22.0694173,28.0074646 C22.4820157,28.364315 22.8505197,29.0688819 22.8505197,30.1469921 C22.8505197,31.6915591 22.8360315,32.9375433 22.8360315,33.3167559 C22.8360315,33.6257323 23.0432756,33.9854173 23.6275276,33.8720315 C28.1976063,32.3410079 31.4917795,28.0131339 31.4917795,22.9101417 C31.4917795,16.5277795 26.3387087,11.3548661 19.9821732,11.3548661 L19.9821732,11.3548661 Z" id="Stroke-53" stroke="#000000" fill="#040404"></path>
        </g>
    </g>
</svg>