<?xml version="1.0" encoding="UTF-8" standalone="no"?>
<svg width="40px" height="45px" viewBox="0 0 40 45" version="1.1" xmlns="http://www.w3.org/2000/svg" xmlns:xlink="http://www.w3.org/1999/xlink">
    <!-- Generator: Sketch 40 (33762) - http://www.bohemiancoding.com/sketch -->
    <title>Group 13</title>
    <desc>Created with Sketch.</desc>
    <defs></defs>
    <g id="Page-1" stroke="none" stroke-width="1" fill="none" fill-rule="evenodd">
        <g id="Group-13">
            <path d="M38.0567244,35.0859528 L21.8724724,44.4302047 C20.7030236,45.1054803 19.2623937,45.1054803 18.0929449,44.4302047 L1.90869291,35.0859528 C0.739559055,34.4106772 0.0189291339,33.1634331 0.0189291339,31.8128819 L0.0189291339,13.1246929 C0.0189291339,11.7744567 0.739559055,10.5268976 1.90869291,9.85193701 L18.0929449,0.508 C19.2623937,-0.167275591 20.7030236,-0.167275591 21.8724724,0.508 L38.0567244,9.85193701 C39.2261732,10.5268976 39.9464882,11.7744567 39.9464882,13.1246929 L39.9464882,31.8128819 C39.9464882,33.1634331 39.2261732,34.4106772 38.0567244,35.0859528 L38.0567244,35.0859528 Z" id="Stroke-191" fill="#FFFFFF"></path>
            <path d="M11.7673386,12.3515906 C10.2152126,12.3515906 9.20040945,13.3484409 9.20040945,14.6640315 C9.20040945,15.9544252 10.1862362,16.9726929 11.7084409,16.9726929 L11.7383622,16.9726929 C13.3182047,16.9726929 14.3018268,15.9509606 14.3018268,14.660252 C14.2715906,13.3459213 13.3182047,12.3515906 11.7673386,12.3515906 L11.7673386,12.3515906 Z" id="Stroke-171" stroke="#000000" fill="#030303"></path>
            <path d="M25.4312126,18.5103937 C23.0230236,18.5103937 21.5143622,19.8149606 21.2353071,20.7286614 L21.2353071,18.6385827 L16.5140472,18.6385827 C16.5742047,19.748189 16.5140472,31.956378 16.5140472,31.956378 L21.2353071,31.956378 L21.2353071,24.7497638 C21.2353071,24.3491339 21.2160945,23.9488189 21.3373543,23.6612598 C21.6627087,22.860315 22.3603465,22.0291339 23.6138898,22.0291339 C25.2535748,22.0291339 25.9990866,23.2609449 25.9990866,25.0647244 L25.9990866,31.956378 L30.7653858,31.956378 L30.7653858,24.5513386 C30.7653858,20.4262992 28.4182992,18.5103937 25.4312126,18.5103937 L25.4312126,18.5103937 Z" id="Stroke-172" stroke="#000000" fill="#030303"></path>
            <polygon id="Stroke-173" stroke="#000000" fill="#030303" points="9.74362205 31.9565354 13.9477165 31.9565354 13.9477165 18.6384252 9.74362205 18.6384252"></polygon>
        </g>
    </g>
</svg>