<?xml version="1.0" encoding="UTF-8" standalone="no"?>
<svg width="40px" height="46px" viewBox="0 0 40 46" version="1.1" xmlns="http://www.w3.org/2000/svg" xmlns:xlink="http://www.w3.org/1999/xlink">
    <!-- Generator: Sketch 40 (33762) - http://www.bohemiancoding.com/sketch -->
    <title>Group</title>
    <desc>Created with Sketch.</desc>
    <defs></defs>
    <g id="Page-1" stroke="none" stroke-width="1" fill="none" fill-rule="evenodd">
        <g id="Group">
            <path d="M38.1068225,35.1658072 L21.8930197,44.5317384 C20.7214584,45.2085806 19.2782261,45.2085806 18.1066648,44.5317384 L1.89317746,35.1658072 C0.721931672,34.488965 0,33.2388272 0,31.8851427 L0,13.153596 C0,11.8002272 0.721931672,10.5497737 1.89317746,9.87324716 L18.1066648,0.507631701 C19.2782261,-0.169210567 20.7214584,-0.169210567 21.8930197,0.507631701 L38.1068225,9.87324716 C39.2783839,10.5497737 40,11.8002272 40,13.153596 L40,31.8851427 C40,33.2388272 39.2783839,34.488965 38.1068225,35.1658072 L38.1068225,35.1658072 Z" id="Stroke-183" fill="#FFFFFF"></path>
            <path d="M30.2753866,13.8694181 C29.4254452,14.3788885 28.486369,14.7496679 27.4831283,14.9486456 C26.6837598,14.0833894 25.5408114,13.5433071 24.2761719,13.5433071 C21.8511996,13.5433071 19.8839123,15.5368324 19.8839123,17.9957844 C19.8839123,18.3450106 19.921842,18.6839287 19.9970693,19.0100397 C16.3457032,18.823869 13.108087,17.0530612 10.9394562,14.3560857 C10.5614235,15.0158045 10.3452242,15.7817281 10.3452242,16.5970056 C10.3452242,18.141035 11.1208866,19.5042041 12.2998682,20.3029261 C11.5807843,20.2810605 10.9018426,20.0786467 10.3085588,19.7475378 L10.3085588,19.802202 C10.3085588,21.9603447 11.8232183,23.760515 13.8347569,24.1681538 C13.4662066,24.2727967 13.0780593,24.3246496 12.6766366,24.3246496 C12.3940603,24.3246496 12.1178057,24.2980984 11.8500852,24.2459331 C12.4095483,26.0139296 14.0304109,27.3018182 15.954079,27.3364909 C14.4511146,28.5312942 12.5549455,29.243803 10.4972591,29.243803 C10.1426164,29.243803 9.79176663,29.2231868 9.4488189,29.1822668 C11.3936644,30.4436042 13.7038994,31.1811024 16.1838698,31.1811024 C24.2673217,31.1811024 28.6864481,24.3974311 28.6864481,18.513064 C28.6864481,18.3193965 28.682023,18.1257291 28.6750692,17.93581 C29.5332288,17.3079526 30.2788635,16.5245365 30.8661417,15.6311672 C30.0791004,15.9853913 29.2313715,16.2249767 28.3431843,16.3321185 C29.2506525,15.7817281 29.9472947,14.908975 30.2753866,13.8694181 L30.2753866,13.8694181 Z" id="Stroke-181" stroke="#000000" stroke-width="2" fill="#020202"></path>
        </g>
    </g>
</svg>